<?xml version="1.0" standalone="no"?>
<!DOCTYPE svg PUBLIC "-//W3C//DTD SVG 20010904//EN"
 "http://www.w3.org/TR/2001/REC-SVG-20010904/DTD/svg10.dtd">
<svg version="1.0" xmlns="http://www.w3.org/2000/svg"
 width="270.000000pt" height="405.000000pt" viewBox="0 0 270.000000 405.000000"
 preserveAspectRatio="xMidYMid meet">

<g transform="translate(0.000000,405.000000) scale(0.100000,-0.100000)"
fill="#000000" stroke="none">
<path d="M2010 3750 c-11 -22 -28 -40 -38 -41 -9 0 28 -9 83 -20 55 -10 105
-17 110 -15 6 2 -23 9 -63 16 -80 15 -77 11 -57 78 12 38 -13 25 -35 -18z"/>
<path d="M1876 3713 c-4 -5 -169 -6 -366 -4 -266 2 -368 0 -396 -9 -75 -25
-159 -85 -268 -190 -92 -89 -118 -108 -150 -113 -52 -8 -88 -43 -84 -81 2 -25
-1 -31 -22 -36 -14 -4 139 -9 340 -13 201 -3 421 -11 490 -17 233 -20 560 -26
800 -15 129 5 241 14 249 19 11 7 13 29 8 108 -6 99 -6 99 16 92 12 -3 25 -9
30 -13 11 -10 44 -131 67 -241 10 -52 33 -139 49 -194 20 -62 31 -118 30 -150
l-2 -51 -6 43 c-9 49 -40 96 -68 100 -46 7 -102 -75 -138 -206 -10 -35 -25
-67 -34 -71 -9 -5 -45 -12 -81 -16 -36 -4 -171 -24 -300 -46 -129 -21 -242
-39 -250 -39 -12 0 -15 16 -16 78 -1 93 -30 167 -81 212 -46 41 -92 40 -154
-2 -38 -26 -55 -48 -92 -123 -26 -50 -53 -115 -60 -145 -8 -30 -18 -55 -23
-56 -5 -1 -66 -4 -136 -7 l-128 -4 0 33 c0 38 -29 76 -80 103 -24 12 -46 39
-71 82 -58 103 -54 102 -365 124 -148 10 -310 19 -360 19 -108 1 -125 -8 -144
-82 -7 -26 -17 -52 -21 -58 -5 -6 -6 -14 -2 -18 4 -4 -1 -4 -10 0 -12 4 -16
12 -12 23 4 9 12 55 20 103 15 101 18 108 51 108 34 0 81 26 88 47 14 48 14
91 1 116 -14 27 -13 29 18 47 18 11 47 25 65 31 18 6 31 13 29 16 -8 7 -109
-38 -145 -66 -41 -30 -72 -89 -72 -134 0 -19 -9 -45 -19 -58 -12 -16 -22 -50
-26 -94 -4 -39 -15 -88 -24 -110 -37 -92 -6 -233 57 -257 15 -5 48 -36 74 -68
38 -47 64 -67 125 -97 l77 -38 -5 -80 c-7 -128 -5 -317 4 -357 4 -21 14 -38
21 -38 8 0 19 -20 25 -46 7 -28 18 -48 29 -51 9 -2 34 -39 54 -81 20 -42 53
-96 73 -120 43 -50 45 -45 -53 -125 -150 -123 -313 -217 -441 -254 l-61 -18 0
-127 c0 -71 4 -128 9 -128 5 0 30 9 56 20 26 11 53 20 60 20 27 0 75 -53 105
-114 35 -74 102 -140 156 -155 56 -16 69 -14 102 14 29 25 84 34 108 17 42
-29 129 -192 120 -226 -15 -62 -58 -134 -85 -146 -39 -16 -86 -68 -102 -113
-12 -33 -11 -39 4 -55 15 -14 38 -17 150 -17 149 0 220 9 242 31 8 9 15 33 15
55 0 47 -3 46 128 18 105 -23 315 -31 429 -16 l62 8 3 -33 c3 -29 7 -33 43
-41 65 -15 386 -14 413 1 58 33 -1 137 -94 164 l-41 11 43 86 c29 57 57 96 82
116 51 41 116 113 136 152 36 70 108 133 153 133 31 0 163 -160 187 -226 l14
-39 28 60 c24 50 29 73 29 140 0 111 -15 136 -149 252 -61 53 -137 124 -169
157 -71 74 -217 251 -217 264 0 4 14 21 31 38 69 65 150 198 184 302 12 36 22
51 31 48 18 -7 34 53 34 127 0 32 4 56 9 53 14 -9 21 21 15 72 -7 66 -21 123
-57 232 -18 52 -32 98 -32 102 0 3 24 23 53 43 l54 37 25 -24 c32 -30 159 -40
198 -14 35 23 62 81 75 162 7 38 18 91 26 118 23 81 18 205 -11 292 -14 41
-25 98 -25 127 0 28 -7 80 -15 115 -24 101 -123 322 -145 322 -4 0 -24 11 -44
25 -21 14 -34 20 -30 13 5 -8 2 -9 -12 -4 -43 17 -266 66 -368 82 -80 12 -117
14 -137 7 -15 -6 -32 -7 -39 -3 -12 8 28 24 80 33 22 4 21 4 -6 6 -17 0 -34
-2 -38 -6z m-696 -23 c-25 -4 -57 -10 -72 -14 -16 -5 -28 -6 -28 -2 0 10 63
24 105 24 l40 -1 -45 -7z m-167 -99 c17 -6 13 -12 -25 -46 -23 -21 -89 -82
-144 -135 -89 -85 -108 -98 -145 -103 l-44 -7 153 150 c84 83 160 150 170 149
9 0 25 -4 35 -8z m168 -27 l36 -6 -53 -122 -53 -121 -158 -3 -158 -2 85 80
c195 185 203 190 301 174z m312 -53 c23 -9 24 -14 22 -76 -1 -36 -5 -69 -9
-72 -3 -3 -6 2 -6 12 0 55 -40 105 -85 105 -8 0 -11 7 -8 20 6 22 44 27 86 11z
m544 -61 c37 0 41 -2 47 -31 13 -66 8 -69 -60 -43 -34 13 -43 22 -48 47 -4 18
-16 40 -29 50 -17 15 -14 15 14 -2 21 -12 54 -21 76 -21z m70 18 c-3 -8 -6 -5
-6 6 -1 11 2 17 5 13 3 -3 4 -12 1 -19z m-787 8 c0 -2 -9 -23 -20 -47 -11 -24
-20 -59 -20 -76 0 -28 -4 -33 -25 -33 -14 0 -25 4 -25 8 0 18 53 137 64 144
12 8 26 10 26 4z m289 -5 c12 -8 12 -16 -4 -58 -26 -70 -39 -78 -31 -19 3 27
6 57 6 67 0 21 8 23 29 10z m698 -6 c11 -4 44 -82 57 -137 5 -24 3 -28 -14
-28 -11 0 -20 6 -20 14 0 27 -30 46 -74 46 l-43 0 -11 51 c-7 28 -12 54 -12
59 0 8 86 4 117 -5z m-190 -77 c-2 -13 -4 -3 -4 22 0 25 2 35 4 23 2 -13 2
-33 0 -45z m-110 -44 c-3 -3 -12 -4 -19 -1 -8 3 -5 6 6 6 11 1 17 -2 13 -5z
m-1822 -268 c0 -27 -4 -42 -11 -39 -6 2 -8 17 -6 33 2 17 -1 36 -7 44 -6 7 -8
16 -4 20 13 13 27 -15 28 -58z m-46 -34 c-6 -29 -15 -54 -20 -58 -13 -8 -11
70 3 101 18 41 30 14 17 -43z m2423 -278 c-4 -61 -16 -61 -25 -2 -4 29 -2 40
11 48 9 5 17 10 17 10 0 0 -2 -25 -3 -56z m43 -54 c-25 -28 -28 -20 -13 35
l13 48 9 -32 c7 -25 5 -35 -9 -51z m-1000 -37 c-11 -87 -20 -93 -37 -24 -15
56 -14 62 1 71 36 21 43 13 36 -47z m-1245 25 c0 -9 3 -9 12 0 19 19 29 14 16
-7 -9 -15 -9 -23 2 -35 7 -9 10 -20 6 -24 -4 -4 -12 1 -17 11 -13 22 -26 22
-32 0 -3 -10 -5 1 -6 25 0 23 4 42 9 42 6 0 10 -5 10 -12z m80 -33 c0 -19 -4
-35 -10 -35 -5 0 -10 16 -10 35 0 19 5 35 10 35 6 0 10 -16 10 -35z m73 28 c3
-5 8 -24 12 -43 7 -31 6 -33 -9 -21 -9 7 -25 11 -36 8 -23 -6 -25 2 -8 38 11
24 32 33 41 18z m-477 -30 c-6 -16 -5 -15 12 1 19 16 20 16 26 -9 14 -55 -21
-89 -44 -44 -11 20 -6 69 6 69 3 0 3 -8 0 -17z m2494 -13 c0 -10 -9 -20 -21
-23 -15 -4 -19 -2 -15 10 3 8 6 21 6 29 0 8 6 11 15 8 8 -4 15 -14 15 -24z
m-835 -32 c7 -28 3 -36 -26 -60 -50 -42 -61 -21 -25 47 17 30 33 52 37 49 4
-2 11 -19 14 -36z m925 -6 c0 -24 0 -25 -20 -7 -11 10 -20 24 -20 31 0 7 8 10
20 7 13 -4 20 -14 20 -31z m-1636 -27 c-9 -14 -13 -32 -9 -45 10 -30 25 -24
19 8 -4 19 -1 32 10 41 22 18 36 5 36 -33 0 -58 -52 -76 -77 -27 -9 20 -9 30
3 53 8 15 19 28 24 28 6 0 3 -11 -6 -25z m566 -65 c0 -17 -7 -20 -40 -20 -37
0 -40 -2 -41 -27 0 -16 -3 -22 -6 -15 -2 7 1 45 7 84 l12 72 34 -37 c19 -20
34 -46 34 -57z m1017 58 c-3 -8 -6 -5 -6 6 -1 11 2 17 5 13 3 -3 4 -12 1 -19z
m-33 -52 c-6 -33 -8 -35 -19 -19 -10 14 -10 19 1 31 8 7 14 18 14 24 0 6 3 9
6 6 3 -3 2 -22 -2 -42z m48 4 c3 -17 1 -33 -4 -36 -4 -3 -8 11 -8 30 0 44 6
47 12 6z m-302 10 c0 -19 -29 -22 -52 -6 -22 16 -22 16 15 16 20 0 37 -5 37
-10z m-621 -100 c31 -39 31 -40 15 -71 -18 -36 -24 -32 -48 30 -13 35 -15 81
-2 81 1 0 17 -18 35 -40z m227 4 c10 -20 33 -46 51 -56 18 -11 33 -23 33 -27
0 -16 -14 -20 -27 -9 -9 7 -17 8 -24 1 -21 -21 -180 23 -178 49 4 48 16 63 54
69 71 11 73 10 91 -27z m-317 -6 c-1 -26 -25 -127 -31 -133 -3 -3 -15 6 -27
20 l-20 27 23 32 c13 17 26 39 29 49 7 20 27 23 26 5z m-604 -53 c94 -10 176
-22 183 -27 6 -6 41 -11 76 -11 59 -1 65 -3 69 -24 2 -14 0 -22 -7 -21 -9 1
-64 -6 -116 -16 -20 -4 -43 -13 -113 -43 -43 -18 -68 -23 -92 -19 -52 10 -122
44 -161 78 -48 42 -59 29 -58 -68 1 -65 -1 -72 -14 -62 -30 25 -7 -70 27 -113
l31 -38 -31 -46 c-28 -41 -31 -52 -25 -93 l6 -47 -19 24 c-11 14 -21 49 -25
85 -3 34 -15 97 -26 141 -11 44 -27 111 -34 149 l-13 69 51 53 c46 48 55 53
86 50 19 -3 112 -12 205 -21z m1012 -77 c-3 -8 -6 -5 -6 6 -1 11 2 17 5 13 3
-3 4 -12 1 -19z m3 -245 l0 -78 -25 37 -24 36 22 41 c12 22 23 41 25 41 1 0 2
-35 2 -77z m-856 -49 c24 -9 20 -22 -18 -57 -64 -61 -70 -159 -12 -225 38 -43
81 -62 141 -62 78 0 123 34 154 116 10 27 24 50 30 52 25 8 2 -78 -31 -115
-87 -98 -102 -110 -154 -118 -66 -8 -122 7 -176 48 -63 48 -88 98 -88 177 0
127 74 215 154 184z m754 -17 c73 -78 76 -251 5 -319 -39 -38 -99 -61 -138
-54 -38 7 -58 28 -80 80 l-16 38 27 -21 c37 -29 111 -29 148 0 39 30 59 77 59
135 0 50 -26 114 -46 114 -5 0 -7 6 -4 14 4 10 0 13 -14 11 -17 -4 -19 -2 -9
10 18 21 43 18 68 -8z m-49 -83 c26 -22 31 -33 31 -70 0 -83 -40 -124 -118
-124 -53 1 -103 48 -102 97 1 12 5 8 14 -12 17 -40 55 -59 100 -51 44 8 66 38
66 92 0 30 -7 48 -25 68 -32 34 -7 35 34 0z m-680 -24 c-23 -44 -22 -98 3
-127 25 -30 76 -45 114 -33 31 11 76 53 87 82 10 29 16 -1 6 -35 -22 -80 -125
-113 -209 -66 -73 41 -92 147 -35 197 43 37 58 29 34 -18z m641 0 c0 -27 -19
-35 -38 -17 -12 13 -13 19 -3 31 16 19 41 10 41 -14z m-477 -3 c8 -20 -9 -41
-27 -34 -23 9 -21 47 3 47 10 0 21 -6 24 -13z m286 -93 c28 -35 57 -127 42
-132 -6 -2 -11 -8 -11 -14 0 -5 -9 -21 -19 -34 -19 -25 -19 -25 -26 -3 -15 46
-137 67 -175 29 -20 -20 -37 -10 -23 13 4 7 34 48 67 90 52 69 62 77 91 77 24
0 39 -7 54 -26z m-56 -241 c-7 -2 -19 -2 -25 0 -7 3 -2 5 12 5 14 0 19 -2 13
-5z m-97 -287 c28 -28 34 -42 34 -76 0 -23 -5 -50 -11 -61 -7 -15 -7 -24 2
-35 17 -21 -7 -50 -28 -32 -8 6 -35 11 -61 9 -41 -1 -52 2 -80 30 -28 27 -32
38 -32 83 1 108 103 155 176 82z m114 -81 l0 -115 -25 0 -25 0 0 108 c0 60 3
112 7 115 3 4 15 7 25 7 16 0 18 -10 18 -115z m148 45 c12 -39 22 -77 22 -84
0 -18 -27 -40 -34 -28 -11 18 -67 0 -76 -24 -6 -15 -18 -24 -31 -24 -13 0 -19
5 -17 13 3 6 20 58 39 114 28 86 37 103 55 103 16 0 24 -13 42 -70z m-733
-320 c-5 -8 -11 -8 -17 -2 -6 6 -7 16 -3 22 5 8 11 8 17 2 6 -6 7 -16 3 -22z
m40 -6 c6 -1 42 -11 80 -22 39 -12 117 -28 174 -36 57 -8 106 -17 108 -20 10
-10 -10 -88 -23 -93 -29 -11 -298 48 -320 70 -2 2 1 18 6 37 8 27 6 35 -7 46
-14 10 -19 9 -29 -4 -8 -11 -13 -12 -18 -4 -4 7 -3 12 3 12 6 0 8 8 5 18 -4
10 -2 13 3 7 4 -5 13 -11 18 -11z m741 -49 c-11 -8 -26 -15 -33 -15 -7 0 -13
-5 -13 -11 0 -5 -4 -8 -9 -5 -9 6 -27 -49 -23 -66 2 -9 -76 -33 -84 -26 -3 3
-2 29 2 57 6 47 9 51 33 51 14 0 49 7 76 14 65 18 74 18 51 1z m-182 -50 c0
-22 -4 -52 -7 -67 -7 -28 -7 -28 -99 -28 l-91 0 7 57 c9 80 15 84 110 81 l81
-3 -1 -40z"/>
<path d="M485 2670 c-3 -5 -1 -10 4 -10 6 0 11 5 11 10 0 6 -2 10 -4 10 -3 0
-8 -4 -11 -10z"/>
<path d="M1514 1736 c-8 -22 3 -33 18 -18 9 9 9 15 0 24 -9 9 -13 7 -18 -6z"/>
<path d="M1330 1233 c-40 -51 -11 -123 49 -123 23 0 23 1 7 13 -16 12 -17 14
-1 27 12 10 19 10 27 2 20 -20 28 -13 28 23 0 41 -36 85 -69 85 -11 0 -29 -12
-41 -27z"/>
<path d="M1656 1214 c-12 -32 -7 -52 12 -47 14 3 17 12 14 34 -5 32 -16 38
-26 13z"/>
<path d="M1414 796 c-3 -13 -4 -35 -2 -47 3 -22 7 -24 68 -24 l65 0 3 48 3 47
-65 0 c-61 0 -66 -2 -72 -24z m124 -23 l-3 -38 -57 -3 -58 -3 0 34 c0 18 3 37
7 40 3 4 31 7 60 7 l54 0 -3 -37z"/>
<path d="M2195 3660 c11 -5 29 -8 40 -8 16 0 15 2 -5 8 -34 11 -60 11 -35 0z"/>
<path d="M2298 3633 c7 -3 16 -2 19 1 4 3 -2 6 -13 5 -11 0 -14 -3 -6 -6z"/>
<path d="M513 3263 c9 -2 25 -2 35 0 9 3 1 5 -18 5 -19 0 -27 -2 -17 -5z"/>
<path d="M420 3250 c-20 -6 -21 -8 -5 -8 11 0 34 4 50 8 27 7 27 8 5 8 -14 0
-36 -4 -50 -8z"/>
<path d="M328 3223 c7 -3 16 -2 19 1 4 3 -2 6 -13 5 -11 0 -14 -3 -6 -6z"/>
<path d="M474 3135 c-19 -15 -19 -15 0 -30 43 -33 145 -5 115 31 -15 19 -90
18 -115 -1z"/>
<path d="M1265 3143 c-314 -25 -368 -35 -394 -71 -10 -15 -20 -36 -22 -47 -3
-12 -14 -21 -28 -23 -20 -3 -22 -1 -16 15 4 10 8 27 9 38 1 18 -7 21 -103 27
-58 4 -114 3 -128 -3 -33 -12 -120 -11 -145 2 -33 17 -175 24 -193 9 -19 -15
-20 -70 -1 -95 12 -17 24 -18 147 -12 104 5 145 3 183 -8 65 -20 176 -20 202
0 25 19 58 19 74 0 7 -8 51 -27 99 -41 76 -24 97 -26 181 -21 52 3 112 12 134
19 42 13 121 85 163 149 26 40 27 42 8 55 -18 13 -70 16 -170 7z m165 -25 c0
-6 -10 -22 -22 -35 -25 -27 -79 -31 -98 -8 -7 8 -22 15 -34 14 -11 0 -15 -3
-8 -6 20 -8 14 -68 -9 -89 -37 -33 -129 -27 -129 9 0 7 4 7 12 -1 16 -16 35
-15 41 2 4 10 1 13 -9 9 -9 -3 -14 2 -14 16 0 12 8 25 18 28 9 4 23 13 31 20
11 12 -12 13 -145 7 -88 -4 -157 -4 -154 -1 6 6 208 35 285 40 130 9 235 7
235 -5z m-970 -57 l35 -10 -35 5 c-19 3 -64 9 -100 14 l-65 8 65 -3 c36 -1 81
-8 100 -14z m315 3 c-45 -7 -216 -9 -199 -3 11 4 64 7 119 7 55 0 91 -2 80 -4z
m205 -10 c0 -19 -27 -54 -43 -54 -17 0 -18 2 -6 17 10 11 10 14 2 9 -14 -8
-16 -5 -8 16 4 11 55 23 55 12z m170 -13 c0 -5 -7 -11 -15 -15 -15 -5 -20 5
-8 17 9 10 23 9 23 -2z m182 -40 c-61 -57 -109 -79 -64 -29 15 16 37 40 49 54
12 13 32 24 45 24 20 0 16 -7 -30 -49z m-1029 2 c-7 -2 -21 -2 -30 0 -10 3 -4
5 12 5 17 0 24 -2 18 -5z m904 -69 c-3 -3 -12 -4 -19 -1 -8 3 -5 6 6 6 11 1
17 -2 13 -5z"/>
<path d="M1231 3043 c-1 -16 -6 -21 -16 -17 -8 4 -15 1 -15 -5 0 -6 7 -11 15
-11 9 0 12 -6 8 -17 -3 -12 1 -10 12 5 13 18 15 29 7 45 l-11 22 0 -22z"/>
<path d="M1682 3143 c-10 -4 -5 -14 17 -37 26 -27 37 -31 66 -28 26 3 35 9 35
22 0 41 -11 50 -59 49 -25 0 -52 -3 -59 -6z m80 -35 c-17 -8 -26 -8 -34 0 -9
9 -4 12 23 11 32 0 33 -1 11 -11z"/>
<path d="M1583 3133 c9 -2 25 -2 35 0 9 3 1 5 -18 5 -19 0 -27 -2 -17 -5z"/>
<path d="M1513 3123 c9 -2 23 -2 30 0 6 3 -1 5 -18 5 -16 0 -22 -2 -12 -5z"/>
<path d="M2232 3080 c0 -14 2 -19 5 -12 2 6 2 18 0 25 -3 6 -5 1 -5 -13z"/>
<path d="M2138 3073 c7 -3 16 -2 19 1 4 3 -2 6 -13 5 -11 0 -14 -3 -6 -6z"/>
<path d="M2232 2940 c0 -14 2 -19 5 -12 2 6 2 18 0 25 -3 6 -5 1 -5 -13z"/>
<path d="M2231 2764 c0 -11 3 -14 6 -6 3 7 2 16 -1 19 -3 4 -6 -2 -5 -13z"/>
</g>
</svg>
